<?xml version="1.0" standalone="no"?>
<!DOCTYPE svg PUBLIC "-//W3C//DTD SVG 20010904//EN"
 "http://www.w3.org/TR/2001/REC-SVG-20010904/DTD/svg10.dtd">
<svg version="1.0" xmlns="http://www.w3.org/2000/svg"
 width="700.000000pt" height="700.000000pt" viewBox="0 0 700.000000 700.000000"
 preserveAspectRatio="xMidYMid meet">
<metadata>
Created by potrace 1.11, written by Peter Selinger 2001-2013
</metadata>
<g transform="translate(0.000000,700.000000) scale(0.100000,-0.100000)"
fill="#000000" stroke="none">
<path d="M3377 6414 c-1 -1 -33 -4 -72 -8 -623 -56 -1190 -404 -1532 -940 -59
-92 -171 -329 -207 -436 -126 -377 -138 -768 -37 -1183 52 -215 144 -478 249
-712 38 -86 195 -399 235 -470 19 -33 49 -87 67 -120 19 -33 51 -89 73 -125
22 -36 45 -75 52 -87 41 -77 375 -581 487 -734 283 -386 500 -660 782 -987 11
-12 23 -22 26 -22 4 0 63 66 131 146 68 81 129 152 134 158 28 30 284 358 377
481 207 277 480 673 602 875 15 25 41 68 58 95 124 201 327 583 408 765 18 41
39 89 46 105 120 269 231 634 260 850 3 22 8 51 11 65 10 46 11 404 2 470 -5
36 -11 81 -13 100 -13 93 -60 275 -97 370 -11 30 -23 64 -27 75 -24 83 -203
390 -289 496 -284 348 -636 583 -1051 700 -40 11 -83 22 -95 25 -79 16 -200
36 -247 40 -53 5 -328 12 -333 8z m231 -1318 c302 -40 561 -295 611 -601 12
-76 7 -240 -9 -291 -53 -165 -103 -249 -211 -354 -348 -340 -932 -238 -1150
200 -146 295 -80 644 165 868 96 87 248 160 371 176 27 4 50 8 51 9 5 4 122
-1 172 -7z"/>
</g>
</svg>
